<svg viewBox="0 0 38 38" fill="none" xmlns="http://www.w3.org/2000/svg">
<path d="M15.1667 22.8333L36.25 1.75" stroke="#24BD86" stroke-width="3" stroke-linecap="round" stroke-linejoin="round"/>
<path d="M36.25 1.75L23.7917 36.25C23.7076 36.4335 23.5726 36.589 23.4027 36.698C23.2328 36.807 23.0352 36.865 22.8333 36.865C22.6315 36.865 22.4339 36.807 22.264 36.698C22.0941 36.589 21.9591 36.4335 21.875 36.25L15.1667 22.8333L1.75001 16.125C1.56651 16.0409 1.41101 15.9059 1.30198 15.736C1.19296 15.5661 1.13501 15.3685 1.13501 15.1667C1.13501 14.9648 1.19296 14.7672 1.30198 14.5973C1.41101 14.4274 1.56651 14.2924 1.75001 14.2083L36.25 1.75Z" stroke="#24BD86" stroke-width="3" stroke-linecap="round" stroke-linejoin="round"/>
</svg>
